# xmcd
#
# Track frame offsets:
#	150
#	8978
#	19121
#	38589
#	47416
#	58488
#	73025
#	88389
#	98686
#	108844
#	125562
#	140967
#	160290
#	173200
#	185136
#	200391
#	215046
#	232215
#	257828
#	275991
#	305016
#	315319
#
# Disc length: 4379 seconds
# Revision: 0
# Processed by: cddbd v1.5.2PL0 Copyright (c) Steve Scherf et al.
# Submitted via: dBpowerAMP V12.0
#
DISCID=55111916
DTITLE=Dutch Tilders - Direct/Blues Had A Baby
DYEAR=2004
DGENRE=Blues
TTITLE0=Simple Rag
TTITLE1=Glory Of Love
TTITLE2=Rainy Day
TTITLE3=Song In G
TTITLE4=Stoned Again
TTITLE5=Frankie and Johnnie
TTITLE6=Take A Trip With Me
TTITLE7=Dutchman's Boogie
TTITLE8=Corina, Corina
TTITLE9=My Heart's In Sorrow
TTITLE10=The Blues Had A Baby
TTITLE11=They Call Me Moonlight
TTITLE12=Something To Work On
TTITLE13=Don't Take Long
TTITLE14=The Hunter
TTITLE15=Baby What's Wrong
TTITLE16=KB's Blues
TTITLE17=Beat In My Heart
TTITLE18=Bad Books
TTITLE19=Next In Line (Bonus Track)
TTITLE20=21st Birthday Rag (Instrumental)
TTITLE21=Times Getting Tougher Than Tough Bonus Track)
EXTD=
EXTT0=
EXTT1=
EXTT2=
EXTT3=
EXTT4=
EXTT5=
EXTT6=
EXTT7=
EXTT8=
EXTT9=
EXTT10=
EXTT11=
EXTT12=
EXTT13=
EXTT14=
EXTT15=
EXTT16=
EXTT17=
EXTT18=
EXTT19=
EXTT20=
EXTT21=
PLAYORDER=
